<svg width="135" height="130" viewBox="0 0 135 130" fill="none" xmlns="http://www.w3.org/2000/svg">
<path fill-rule="evenodd" clip-rule="evenodd" d="M75.5844 21.6339C60.6547 28.3713 44.3442 41.2189 32.6138 42.3867C20.8835 43.5544 6.02786 49.6703 8.21644 64.2354C10.405 78.8005 53.3722 100.651 73.3992 106.114C93.4262 111.577 111.271 97.0113 109.087 70.4276C106.903 43.8439 90.5152 14.8999 75.5844 21.6306V21.6339Z" fill="#FF4756"/>
<path fill-rule="evenodd" clip-rule="evenodd" d="M20.9642 36.9299C19.5059 44.9416 24.6065 57.6827 23.8808 70.4327C23.155 83.1828 8.58654 93.1912 21.6944 102.842C34.8023 112.492 63.0272 97.5616 96.1643 95.741C129.301 93.9204 128.756 42.2101 116.739 37.1117C104.721 32.0132 91.2487 42.7564 79.2323 43.4856C63.6397 44.429 25.3873 12.6369 20.9664 36.9299H20.9642Z" fill="#00235A"/>
<path fill-rule="evenodd" clip-rule="evenodd" d="M27.0265 21.0082C27.0267 22.1968 26.6744 23.3587 26.0143 24.3471C25.3541 25.3355 24.4156 26.1059 23.3176 26.5609C22.2195 27.0159 21.0112 27.1351 19.8455 26.9033C18.6797 26.6716 17.6088 26.0993 16.7683 25.259C15.9278 24.4186 15.3553 23.3478 15.1234 22.1821C14.8914 21.0164 15.0103 19.808 15.4651 18.7099C15.9199 17.6118 16.6902 16.6732 17.6784 16.0128C18.6667 15.3525 19.8286 15 21.0172 15C21.8063 14.9999 22.5876 15.1551 23.3167 15.457C24.0458 15.7589 24.7083 16.2014 25.2663 16.7594C25.8243 17.3173 26.267 17.9797 26.569 18.7087C26.871 19.4377 27.0265 20.2191 27.0265 21.0082Z" fill="#FF4756"/>
<path fill-rule="evenodd" clip-rule="evenodd" d="M99.5714 103.387C99.5716 104.576 99.2194 105.738 98.5592 106.726C97.899 107.714 96.9606 108.485 95.8625 108.94C94.7645 109.395 93.5562 109.514 92.3904 109.282C91.2246 109.05 90.1538 108.478 89.3132 107.638C88.4727 106.797 87.9002 105.727 87.6683 104.561C87.4363 103.395 87.5553 102.187 88.0101 101.089C88.4649 99.9907 89.2351 99.0521 90.2234 98.3917C91.2116 97.7314 92.3735 97.3789 93.5621 97.3789C95.1556 97.3789 96.684 98.0119 97.8109 99.1386C98.9378 100.265 99.5711 101.794 99.5714 103.387Z" fill="#00235A"/>
<path fill-rule="evenodd" clip-rule="evenodd" d="M107.232 108.589C107.232 109.201 107.05 109.8 106.71 110.309C106.37 110.818 105.887 111.214 105.321 111.448C104.756 111.683 104.134 111.744 103.533 111.625C102.933 111.505 102.381 111.21 101.948 110.778C101.516 110.345 101.221 109.793 101.101 109.193C100.982 108.593 101.043 107.97 101.278 107.405C101.512 106.839 101.909 106.356 102.417 106.016C102.926 105.676 103.525 105.494 104.137 105.494C104.958 105.494 105.745 105.82 106.325 106.401C106.906 106.981 107.232 107.768 107.232 108.589Z" fill="#FF4756"/>
<path fill-rule="evenodd" clip-rule="evenodd" d="M60.7519 104.67C60.7519 104.67 50.1018 105.763 46.3674 109.677C42.633 113.592 47.7337 115.322 49.5544 112.864C51.375 110.407 52.5585 107.584 60.7519 104.67Z" fill="#FF4756"/>
<path fill-rule="evenodd" clip-rule="evenodd" d="M64.2841 105.527C64.2841 105.527 59.2485 109.862 58.7369 113.18C58.2254 116.498 61.4292 115.568 61.4898 113.671C61.5503 111.774 61.1465 109.917 64.2841 105.527Z" fill="#FF4756"/>
<path fill-rule="evenodd" clip-rule="evenodd" d="M104.99 32.9593C104.99 32.9593 111.12 24.1815 110.594 18.7981C110.067 13.4147 105.433 16.1451 106.1 19.1346C106.766 22.1241 108.136 24.8557 104.99 32.9649V32.9593Z" fill="#00235A"/>
<path fill-rule="evenodd" clip-rule="evenodd" d="M102.033 35.0744C102.033 35.0744 102.04 28.4302 99.8614 25.8759C97.6829 23.3216 96.2897 26.3571 97.6908 27.6382C99.0919 28.9193 100.759 29.8301 102.033 35.0733V35.0744Z" fill="#00235A"/>
<path d="M111.207 94.5267C111.098 94.5657 110.978 94.5598 110.874 94.5105C110.769 94.4612 110.689 94.3724 110.65 94.2636C110.611 94.1549 110.616 94.0351 110.666 93.9307C110.715 93.8262 110.804 93.7456 110.913 93.7067C115.307 92.1295 119.207 87.805 122.083 82.6146C125.35 76.7174 127.283 69.7232 127.12 64.3544C127.117 64.239 127.16 64.127 127.239 64.0432C127.319 63.9594 127.428 63.9105 127.543 63.9074C127.659 63.9043 127.771 63.9471 127.855 64.0265C127.938 64.1059 127.987 64.2154 127.99 64.3309C128.158 69.8466 126.183 77.0069 122.845 83.0364C119.876 88.3962 115.818 92.8721 111.207 94.5267Z" fill="#FF4756"/>
<path d="M52.8796 30.3261C52.8328 30.3609 52.7796 30.3859 52.723 30.3997C52.6664 30.4135 52.6076 30.4159 52.5501 30.4065C52.4926 30.3972 52.4375 30.3764 52.3882 30.3454C52.3389 30.3144 52.2963 30.2738 52.2629 30.226C52.2296 30.1783 52.2062 30.1243 52.1941 30.0673C52.182 30.0103 52.1814 29.9515 52.1925 29.8943C52.2035 29.8371 52.226 29.7827 52.2584 29.7343C52.2909 29.6859 52.3328 29.6446 52.3815 29.6127C61.3411 23.3308 68.037 19.3541 73.2644 17.2665C78.5782 15.143 82.4091 14.9635 85.5657 16.3163C85.6722 16.3617 85.7564 16.4475 85.7996 16.5549C85.8428 16.6623 85.8416 16.7825 85.7963 16.889C85.7509 16.9955 85.6651 17.0796 85.5577 17.1229C85.4503 17.1661 85.3301 17.1649 85.2236 17.1195C82.2823 15.8587 78.6624 16.0471 73.5852 18.0742C68.4251 20.1371 61.7842 24.088 52.8796 30.3261Z" fill="#00235A"/>
<path d="M17.5313 103.354C17.5828 103.379 17.629 103.414 17.667 103.457C17.7051 103.5 17.7343 103.55 17.7531 103.604C17.7718 103.658 17.7797 103.716 17.7763 103.773C17.7729 103.83 17.7583 103.886 17.7332 103.938C17.7082 103.989 17.6732 104.035 17.6303 104.073C17.5875 104.111 17.5375 104.141 17.4834 104.159C17.4292 104.178 17.3719 104.186 17.3147 104.183C17.2574 104.179 17.2014 104.165 17.1499 104.139C16.9794 104.056 16.8115 103.968 16.6462 103.874L16.6204 103.857C13.466 102.043 12.0514 98.6349 11.9381 94.6448C11.826 90.7186 12.9825 86.2169 14.9759 82.1404C15.2825 81.5137 15.6045 80.9039 15.9417 80.3108C15.9987 80.2103 16.0933 80.1364 16.2047 80.1056C16.3161 80.0748 16.4352 80.0895 16.5357 80.1465C16.6363 80.2035 16.7101 80.298 16.7409 80.4094C16.7717 80.5208 16.757 80.6399 16.7001 80.7405C16.3635 81.3283 16.0494 81.9239 15.7578 82.5218C13.8227 86.4783 12.7021 90.8353 12.8086 94.6201C12.913 98.322 14.1985 101.463 17.059 103.104L17.0792 103.114C17.2239 103.197 17.3754 103.277 17.5279 103.354H17.5313Z" fill="#FF4756"/>
</svg>
