<svg width="35" height="35" viewBox="0 0 35 35" fill="none" xmlns="http://www.w3.org/2000/svg">
<circle cx="17.5" cy="17.5" r="17.5" fill="white"/>
<g clip-path="url(#clip0_4913_1542)">
<path d="M21.375 9H14.625C11.5189 9 9 11.5189 9 14.625V21.375C9 24.4811 11.5189 27 14.625 27H21.375C24.4811 27 27 24.4811 27 21.375V14.625C27 11.5189 24.4811 9 21.375 9ZM25.3125 21.375C25.3125 23.5463 23.5463 25.3125 21.375 25.3125H14.625C12.4538 25.3125 10.6875 23.5463 10.6875 21.375V14.625C10.6875 12.4538 12.4538 10.6875 14.625 10.6875H21.375C23.5463 10.6875 25.3125 12.4538 25.3125 14.625V21.375Z" fill="black" fill-opacity="0.6"/>
<path d="M18 13.5C15.5149 13.5 13.5 15.5149 13.5 18C13.5 20.4851 15.5149 22.5 18 22.5C20.4851 22.5 22.5 20.4851 22.5 18C22.5 15.5149 20.4851 13.5 18 13.5ZM18 20.8125C16.4497 20.8125 15.1875 19.5503 15.1875 18C15.1875 16.4486 16.4497 15.1875 18 15.1875C19.5503 15.1875 20.8125 16.4486 20.8125 18C20.8125 19.5503 19.5503 20.8125 18 20.8125Z" fill="black" fill-opacity="0.6"/>
<path d="M22.8379 13.7617C23.1691 13.7617 23.4375 13.4933 23.4375 13.1621C23.4375 12.831 23.1691 12.5625 22.8379 12.5625C22.5067 12.5625 22.2383 12.831 22.2383 13.1621C22.2383 13.4933 22.5067 13.7617 22.8379 13.7617Z" fill="black" fill-opacity="0.6"/>
</g>
<defs>
<clipPath id="clip0_4913_1542">
<rect width="18" height="18" fill="white" transform="translate(9 9)"/>
</clipPath>
</defs>
</svg>
