<svg width="35" height="35" viewBox="0 0 35 35" fill="none" xmlns="http://www.w3.org/2000/svg">
<circle cx="17.5" cy="17.5" r="17.5" fill="white"/>
<path d="M25.889 13.5176C24.8617 13.5176 23.9139 13.1773 23.1528 12.6032C22.2798 11.945 21.6526 10.9796 21.4312 9.86695C21.3763 9.59203 21.3468 9.30832 21.344 9.01758H18.4095V17.036L18.406 21.4281C18.406 22.6023 17.6413 23.5979 16.5813 23.9481C16.2737 24.0497 15.9415 24.0979 15.5956 24.0789C15.154 24.0546 14.7402 23.9214 14.3806 23.7062C13.6152 23.2485 13.0963 22.4181 13.0822 21.4682C13.0601 19.9835 14.2603 18.7731 15.7439 18.7731C16.0368 18.7731 16.318 18.8209 16.5813 18.9077V16.7161V15.9282C16.3036 15.8871 16.021 15.8657 15.7351 15.8657C14.1113 15.8657 12.5925 16.5407 11.5069 17.7567C10.6864 18.6757 10.1942 19.8482 10.1182 21.0776C10.0187 22.6927 10.6097 24.2279 11.7558 25.3607C11.9242 25.527 12.101 25.6813 12.286 25.8237C13.2686 26.5799 14.4699 26.9898 15.7351 26.9898C16.021 26.9898 16.3036 26.9687 16.5813 26.9276C17.7633 26.7525 18.8538 26.2114 19.7145 25.3607C20.772 24.3155 21.3563 22.9279 21.3626 21.4509L21.3475 14.8922C21.852 15.2814 22.4036 15.6034 22.9956 15.8534C23.9163 16.2418 24.8926 16.4387 25.8974 16.4384V14.3075V13.5169C25.8981 13.5176 25.8897 13.5176 25.889 13.5176Z" fill="black" fill-opacity="0.6"/>
</svg>
